<svg width="256" height="256" viewBox="0 0 256 256" fill="none" xmlns="http://www.w3.org/2000/svg">
<path d="M139.73 27.7158C155.351 12.0948 180.678 12.0947 196.298 27.7158C211.919 43.3366 211.92 68.6632 196.298 84.284L189.941 90.6424L191.512 92.2136C202.448 103.15 202.446 120.882 191.508 131.815L165.655 157.658C162.53 160.782 157.466 160.781 154.342 157.656C151.218 154.531 151.219 149.466 154.344 146.342L180.196 120.499C184.884 115.814 184.885 108.214 180.198 103.527L178.626 101.956L91.6568 188.926C88.4688 192.114 84.448 194.34 80.0536 195.348L25.789 207.798C23.1037 208.414 20.2903 207.605 18.3425 205.656C16.3946 203.707 15.5864 200.894 16.2033 198.209L28.6667 143.956C29.6756 139.565 31.9005 135.546 35.0868 132.359L139.73 27.7158ZM184.985 39.0294C175.612 29.6569 160.416 29.6569 151.044 39.0294L46.4005 143.673C45.3385 144.735 44.5968 146.074 44.2605 147.538L34.6557 189.347L76.4755 179.753C77.9403 179.417 79.2808 178.675 80.3432 177.612L184.985 72.9706C194.358 63.5979 194.358 48.402 184.985 39.0294ZM68.4616 239.178C51.9029 236.366 38.4998 227.038 30.7969 218.96L50.1331 214.524C55.8205 218.509 63.0589 222.032 71.1405 223.404C83.4264 225.491 98.5304 222.782 114.378 207.123C123.266 198.341 130.762 191.514 137.136 186.57C143.374 181.733 149.174 178.186 154.636 176.727C160.69 175.11 166.567 176.046 171.322 180.262C175.394 183.873 177.818 189.223 179.582 194.448L179.845 195.228C183.147 205.018 184.828 210.002 186.514 213.077C187.256 214.427 187.782 214.972 188.136 215.262C188.496 215.558 189.105 215.94 190.504 216.401C190.537 216.412 191.404 216.7 194.05 215.348C196.674 214.007 199.722 211.742 203.503 208.717C204.217 208.146 204.958 207.547 205.72 206.931C208.746 204.485 212.115 201.761 215.49 199.41C219.721 196.461 224.672 193.57 230.082 192.233C234.372 191.174 238.708 193.792 239.767 198.081C240.827 202.37 238.209 206.706 233.919 207.766C231.33 208.406 228.282 209.997 224.638 212.536C221.778 214.529 218.991 216.781 216.017 219.183C215.195 219.847 214.354 220.526 213.498 221.21C209.78 224.186 205.578 227.426 201.328 229.597C197.111 231.75 191.474 233.566 185.498 231.598C182.898 230.742 180.339 229.561 177.991 227.635C175.637 225.705 173.913 223.371 172.487 220.773C170.09 216.402 167.97 210.104 165.156 201.746L164.421 199.562C162.85 194.906 161.508 192.944 160.706 192.233C160.694 192.222 160.681 192.208 160.667 192.192C160.546 192.053 160.303 191.774 158.766 192.185C156.461 192.801 152.712 194.738 146.941 199.214C141.307 203.583 134.335 209.897 125.624 218.505C106.271 237.627 86.0416 242.164 68.4616 239.178Z" fill="url(#paint0_linear_54064_43166)"/>
<defs>
<linearGradient id="paint0_linear_54064_43166" x1="16" y1="128.009" x2="240.003" y2="128.009" gradientUnits="userSpaceOnUse">
<stop stop-color="#282049"/>
<stop offset="0.31" stop-color="#32235B"/>
<stop offset="1" stop-color="#422982"/>
</linearGradient>
</defs>
</svg>
